# xmcd
#
# Track frame offsets:
#	150
#	19157
#	37009
#	54701
#	72135
#	92637
#	107769
#	122742
#	137153
#	155810
#	174744
#	190016
#	207458
#
# Disc length: 2983 seconds
#
# Revision: 0
# Processed by: cddbd v1.5.2PL0 Copyright (c) Steve Scherf et al.
# Submitted via: EasyCDDAExtractor 16.1.0.1
#
DISCID=be0ba50d
DTITLE=Juliana de Paula - Faça-se
DYEAR=2014
DGENRE=Gospel
TTITLE0=Digno de Louvor
TTITLE1=Derrama Tua Graça
TTITLE2=Todo Poder
TTITLE3=Bem-Aventurada
TTITLE4=Espírito de Amor
TTITLE5=Deus me Sustentará
TTITLE6=Creio Já
TTITLE7=Com Alegria Cantar
TTITLE8=Vem, Senhor
TTITLE9=Minha Vocação
TTITLE10=Nós te Louvamos
TTITLE11=Milagre de Amor
TTITLE12=Maria, Passa Na Frente
EXTD=
EXTT0=
EXTT1=
EXTT2=
EXTT3=
EXTT4=
EXTT5=
EXTT6=
EXTT7=
EXTT8=
EXTT9=
EXTT10=
EXTT11=
EXTT12=
PLAYORDER=
